<?xml version="1.0" encoding="UTF-8" standalone="no"?>
<!-- Created with Inkscape (http://www.inkscape.org/) -->

<svg
   xmlns:osb="http://www.openswatchbook.org/uri/2009/osb"
   xmlns:dc="http://purl.org/dc/elements/1.1/"
   xmlns:cc="http://creativecommons.org/ns#"
   xmlns:rdf="http://www.w3.org/1999/02/22-rdf-syntax-ns#"
   xmlns:svg="http://www.w3.org/2000/svg"
   xmlns="http://www.w3.org/2000/svg"
   xmlns:sodipodi="http://sodipodi.sourceforge.net/DTD/sodipodi-0.dtd"
   xmlns:inkscape="http://www.inkscape.org/namespaces/inkscape"
   width="210mm"
   height="297mm"
   viewBox="0 0 744.09448819 1052.3622047"
   id="svg2"
   version="1.1"
   inkscape:version="0.91 r13725"
   sodipodi:docname="fly.svg"
   inkscape:export-filename="E:\Users\Andreanna\Documents\My files\ΙΕΚ\Β' Εξάμηνο\HTML ριζου\Εργασία html\images\fly.png"
   inkscape:export-xdpi="340.72833"
   inkscape:export-ydpi="340.72833">
  <defs
     id="defs4">
    <linearGradient
       id="linearGradient6935"
       osb:paint="solid">
      <stop
         style="stop-color:#bb0000;stop-opacity:1;"
         offset="0"
         id="stop6937" />
    </linearGradient>
    <linearGradient
       id="linearGradient6929"
       osb:paint="solid">
      <stop
         style="stop-color:#bb0000;stop-opacity:1;"
         offset="0"
         id="stop6931" />
    </linearGradient>
    <marker
       inkscape:stockid="Torso"
       orient="auto"
       refY="0.0"
       refX="0.0"
       id="Torso"
       style="overflow:visible"
       inkscape:isstock="true">
      <g
         id="g4798"
         transform="scale(0.7)"
         style="stroke:#bb0000;stroke-opacity:1;fill:#bb0000;fill-opacity:1">
        <path
           id="path4800"
           d="M -4.7792281,-3.2395420 C -2.4288541,-2.8736027 0.52103922,-1.3019943 0.25792722,0.38794346 C -0.0051877922,2.0778819 -2.2126741,2.6176539 -4.5630471,2.2517169 C -6.9134221,1.8857769 -8.5210350,0.75201414 -8.2579220,-0.93792336 C -7.9948090,-2.6278615 -7.1296041,-3.6054813 -4.7792281,-3.2395420 z "
           style="fill:#bb0000;fill-opacity:1;fill-rule:evenodd;stroke:#bb0000;stroke-width:1.25;stroke-opacity:1" />
        <path
           id="path4802"
           d="M 4.4598789,0.088665736 C -2.5564571,-4.3783320 5.2248769,-3.9061806 -0.84829578,-8.7197331"
           style="fill:#bb0000;fill-opacity:1;fill-rule:evenodd;stroke:#bb0000;stroke-width:1pt;stroke-opacity:1" />
        <path
           id="path4804"
           d="M 4.9298719,0.057520736 C -1.3872731,1.7494689 1.8027579,5.4782079 -4.9448731,7.5462725"
           style="fill:#bb0000;fill-opacity:1;fill-rule:evenodd;stroke:#bb0000;stroke-width:1pt;stroke-opacity:1" />
        <rect
           id="rect4806"
           transform="matrix(0.527536,-0.849533,0.887668,0.460484,0,0)"
           y="-1.7408575"
           x="-10.391706"
           height="2.7608147"
           width="2.6366582"
           style="fill-rule:evenodd;stroke-width:1pt;stroke:#bb0000;stroke-opacity:1;fill:#bb0000;fill-opacity:1" />
        <rect
           id="rect4808"
           transform="matrix(0.671205,-0.741272,0.790802,0.612072,0,0)"
           y="-7.9629307"
           x="4.9587269"
           height="2.8614161"
           width="2.7327356"
           style="fill-rule:evenodd;stroke-width:1pt;stroke:#bb0000;stroke-opacity:1;fill:#bb0000;fill-opacity:1" />
        <path
           id="path4810"
           transform="matrix(0,-1.109517,1.109517,0,25.96648,19.71619)"
           d="M 16.779951 -28.685045 A 0.60731727 0.60731727 0 1 0 15.565317,-28.685045 A 0.60731727 0.60731727 0 1 0 16.779951 -28.685045 z"
           style="fill:#bb0000;fill-opacity:1;fill-rule:evenodd;stroke:#bb0000;stroke-width:1pt;stroke-opacity:1" />
        <path
           id="path4812"
           transform="matrix(0,-1.109517,1.109517,0,26.82450,16.99126)"
           d="M 16.779951 -28.685045 A 0.60731727 0.60731727 0 1 0 15.565317,-28.685045 A 0.60731727 0.60731727 0 1 0 16.779951 -28.685045 z"
           style="fill:#bb0000;fill-opacity:1;fill-rule:evenodd;stroke:#bb0000;stroke-width:1pt;stroke-opacity:1" />
      </g>
    </marker>
    <marker
       inkscape:stockid="EmptyDiamondSend"
       orient="auto"
       refY="0.0"
       refX="0.0"
       id="EmptyDiamondSend"
       style="overflow:visible"
       inkscape:isstock="true">
      <path
         id="path4716"
         d="M 0,-7.0710768 L -7.0710894,0 L 0,7.0710589 L 7.0710462,0 L 0,-7.0710768 z "
         style="fill-rule:evenodd;fill:#ffffff;stroke:#bb0000;stroke-width:1pt;stroke-opacity:1"
         transform="scale(0.2) translate(-6,0)" />
    </marker>
    <marker
       inkscape:stockid="CurveOut"
       orient="auto"
       refY="0.0"
       refX="0.0"
       id="CurveOut"
       style="overflow:visible"
       inkscape:isstock="true">
      <path
         id="path4773"
         d="M -5.4129913,-5.0456926 C -2.6529913,-5.0456926 -0.41299131,-2.8056926 -0.41299131,-0.045692580 C -0.41299131,2.7143074 -2.6529913,4.9543074 -5.4129913,4.9543074"
         style="fill:none;fill-rule:evenodd;stroke:#bb0000;stroke-width:1pt;stroke-opacity:1"
         transform="scale(0.6)" />
    </marker>
    <marker
       inkscape:stockid="EmptyTriangleOutL"
       orient="auto"
       refY="0.0"
       refX="0.0"
       id="EmptyTriangleOutL"
       style="overflow:visible"
       inkscape:isstock="true">
      <path
         id="path4746"
         d="M 5.77,0.0 L -2.88,5.0 L -2.88,-5.0 L 5.77,0.0 z "
         style="fill-rule:evenodd;fill:#ffffff;stroke:#bb0000;stroke-width:1pt;stroke-opacity:1"
         transform="scale(0.8) translate(-6,0)" />
    </marker>
    <marker
       inkscape:stockid="DotL"
       orient="auto"
       refY="0.0"
       refX="0.0"
       id="marker5042"
       style="overflow:visible"
       inkscape:isstock="true">
      <path
         id="path5044"
         d="M -2.5,-1.0 C -2.5,1.7600000 -4.7400000,4.0 -7.5,4.0 C -10.260000,4.0 -12.5,1.7600000 -12.5,-1.0 C -12.5,-3.7600000 -10.260000,-6.0 -7.5,-6.0 C -4.7400000,-6.0 -2.5,-3.7600000 -2.5,-1.0 z "
         style="fill-rule:evenodd;stroke:#bb0000;stroke-width:1pt;stroke-opacity:1;fill:#bb0000;fill-opacity:1"
         transform="scale(0.8) translate(7.4, 1)" />
    </marker>
    <marker
       inkscape:stockid="Tail"
       orient="auto"
       refY="0.0"
       refX="0.0"
       id="Tail"
       style="overflow:visible"
       inkscape:isstock="true">
      <g
         id="g4622"
         transform="scale(-1.2)"
         style="stroke:#bb0000;stroke-opacity:1;fill:#bb0000;fill-opacity:1">
        <path
           id="path4624"
           d="M -3.8048674,-3.9585227 L 0.54352094,0"
           style="fill:#bb0000;fill-rule:evenodd;stroke:#bb0000;stroke-width:0.8;stroke-linecap:round;stroke-opacity:1;fill-opacity:1" />
        <path
           id="path4626"
           d="M -1.2866832,-3.9585227 L 3.0617053,0"
           style="fill:#bb0000;fill-rule:evenodd;stroke:#bb0000;stroke-width:0.8;stroke-linecap:round;stroke-opacity:1;fill-opacity:1" />
        <path
           id="path4628"
           d="M 1.3053582,-3.9585227 L 5.6537466,0"
           style="fill:#bb0000;fill-rule:evenodd;stroke:#bb0000;stroke-width:0.8;stroke-linecap:round;stroke-opacity:1;fill-opacity:1" />
        <path
           id="path4630"
           d="M -3.8048674,4.1775838 L 0.54352094,0.21974226"
           style="fill:#bb0000;fill-rule:evenodd;stroke:#bb0000;stroke-width:0.8;stroke-linecap:round;stroke-opacity:1;fill-opacity:1" />
        <path
           id="path4632"
           d="M -1.2866832,4.1775838 L 3.0617053,0.21974226"
           style="fill:#bb0000;fill-rule:evenodd;stroke:#bb0000;stroke-width:0.8;stroke-linecap:round;stroke-opacity:1;fill-opacity:1" />
        <path
           id="path4634"
           d="M 1.3053582,4.1775838 L 5.6537466,0.21974226"
           style="fill:#bb0000;fill-rule:evenodd;stroke:#bb0000;stroke-width:0.8;stroke-linecap:round;stroke-opacity:1;fill-opacity:1" />
      </g>
    </marker>
    <marker
       inkscape:stockid="DotL"
       orient="auto"
       refY="0.0"
       refX="0.0"
       id="DotL"
       style="overflow:visible"
       inkscape:isstock="true">
      <path
         id="path4647"
         d="M -2.5,-1.0 C -2.5,1.7600000 -4.7400000,4.0 -7.5,4.0 C -10.260000,4.0 -12.5,1.7600000 -12.5,-1.0 C -12.5,-3.7600000 -10.260000,-6.0 -7.5,-6.0 C -4.7400000,-6.0 -2.5,-3.7600000 -2.5,-1.0 z "
         style="fill-rule:evenodd;stroke:#bb0000;stroke-width:1pt;stroke-opacity:1;fill:#bb0000;fill-opacity:1"
         transform="scale(0.8) translate(7.4, 1)" />
    </marker>
    <marker
       inkscape:stockid="Arrow1Send"
       orient="auto"
       refY="0.0"
       refX="0.0"
       id="Arrow1Send"
       style="overflow:visible;"
       inkscape:isstock="true">
      <path
         id="path4601"
         d="M 0.0,0.0 L 5.0,-5.0 L -12.5,0.0 L 5.0,5.0 L 0.0,0.0 z "
         style="fill-rule:evenodd;stroke:#bb0000;stroke-width:1pt;stroke-opacity:1;fill:#bb0000;fill-opacity:1"
         transform="scale(0.2) rotate(180) translate(6,0)" />
    </marker>
    <marker
       inkscape:stockid="Arrow1Lstart"
       orient="auto"
       refY="0.0"
       refX="0.0"
       id="Arrow1Lstart"
       style="overflow:visible"
       inkscape:isstock="true">
      <path
         id="path4586"
         d="M 0.0,0.0 L 5.0,-5.0 L -12.5,0.0 L 5.0,5.0 L 0.0,0.0 z "
         style="fill-rule:evenodd;stroke:#bb0000;stroke-width:1pt;stroke-opacity:1;fill:#bb0000;fill-opacity:1"
         transform="scale(0.8) translate(12.5,0)" />
    </marker>
  </defs>
  <sodipodi:namedview
     id="base"
     pagecolor="#ffffff"
     bordercolor="#666666"
     borderopacity="1.0"
     inkscape:pageopacity="0.0"
     inkscape:pageshadow="2"
     inkscape:zoom="7.9195959"
     inkscape:cx="254.96303"
     inkscape:cy="862.62678"
     inkscape:document-units="px"
     inkscape:current-layer="layer1"
     showgrid="false"
     inkscape:window-width="1920"
     inkscape:window-height="1018"
     inkscape:window-x="-8"
     inkscape:window-y="-8"
     inkscape:window-maximized="1" />
  <metadata
     id="metadata7">
    <rdf:RDF>
      <cc:Work
         rdf:about="">
        <dc:format>image/svg+xml</dc:format>
        <dc:type
           rdf:resource="http://purl.org/dc/dcmitype/StillImage" />
        <dc:title></dc:title>
      </cc:Work>
    </rdf:RDF>
  </metadata>
  <g
     inkscape:label="Layer 1"
     inkscape:groupmode="layer"
     id="layer1">
    <g
       id="g6941"
       inkscape:export-xdpi="340"
       inkscape:export-ydpi="340">
      <g
         transform="translate(76.428571,5.8928569)"
         id="g3751">
        <path
           inkscape:connector-curvature="0"
           id="path3755"
           d="m 120.64827,232.99632 c -0.25523,-0.28875 -0.88366,-1.19268 -1.3965,-2.00873 l -0.93243,-1.48374 0,-0.84453 0,-0.84454 0.57696,-1.27173 c 0.31733,-0.69945 1.04745,-2.31021 1.6225,-3.57946 0.57505,-1.26925 1.51134,-3.02425 2.08064,-3.9 l 1.0351,-1.59227 0.68217,-2.1 c 0.3752,-1.155 0.92166,-2.7075 1.21437,-3.45 0.2927,-0.7425 0.69277,-1.9575 0.88905,-2.7 0.19627,-0.7425 0.66773,-2.025 1.04768,-2.85 l 0.69082,-1.5 1.11944,-1.05 c 0.61569,-0.5775 1.71734,-1.85196 2.44812,-2.83213 l 1.32867,-1.78213 -0.18853,-1.81787 -0.18853,-1.81787 1.22973,-1.95 c 0.67635,-1.0725 1.61107,-2.76 2.07716,-3.75 l 0.84744,-1.8 1.85472,-2.25 c 1.02009,-1.2375 2.35596,-2.819 2.9686,-3.51445 l 1.11389,-1.26445 0.93088,-0.31926 0.93089,-0.31925 0.59918,-0.6663 0.59919,-0.66629 0.33281,-2.55 c 0.18306,-1.4025 0.40971,-3.36 0.50367,-4.35 0.094,-0.99 0.32354,-2.71123 0.51015,-3.82495 l 0.3393,-2.02494 -0.39262,-1.18964 -0.39261,-1.18965 -0.63042,-0.58716 -0.63042,-0.58717 -2.25,-0.34898 c -1.2375,-0.19194 -3.195,-0.46703 -4.35,-0.61131 -1.155,-0.14428 -2.4375,-0.34786 -2.85,-0.45241 -0.4125,-0.10455 -0.9525,-0.2342 -1.2,-0.28813 -2.04145,-0.44476 -4.44044,-1.22251 -6.96862,-2.25921 -2.86787,-1.176 -4.23055,-1.8583 -9.26553,-4.63927 l -2.28416,-1.2616 -2.20989,-0.21776 c -1.21544,-0.11977 -2.34758,-0.30571 -2.51585,-0.4132 -0.16827,-0.10749 -0.37345,-0.21566 -0.45595,-0.24038 -1.10636,-0.33155 -1.5,-0.52816 -1.5,-0.74923 l 0,-0.26501 -0.45,0 -0.45,0 0,-1.15523 c 0,-0.63538 0.1492,-1.58323 0.33156,-2.10634 l 0.33155,-0.9511 0.54777,-0.29315 0.54777,-0.29316 1.48906,0.34372 1.48907,0.34371 0.48161,-0.18481 0.48161,-0.18481 0,-1.32268 0,-1.32268 0.44618,-0.3703 0.44618,-0.3703 0.42273,0.16222 0.42274,0.16222 0.21437,1.59635 c 0.1179,0.87798 0.38502,2.01119 0.59359,2.51823 l 0.37921,0.92189 1.41614,0.93801 1.41613,0.93801 2.29637,0.73484 c 1.263,0.40416 3.30886,0.96546 4.54636,1.24734 l 2.25,0.51251 2.25,1.04926 2.25,1.04927 2.7,0.73343 c 1.485,0.40339 3.4425,0.84021 4.35,0.97071 l 1.65,0.23728 1.65,-0.39364 1.65,-0.39363 1.65,0.30891 c 0.9075,0.1699 2.07247,0.43889 2.58881,0.59775 l 0.93881,0.28884 0.80572,-0.30634 c 0.44315,-0.16848 1.32589,-0.30633 1.96165,-0.30633 0.63577,0 1.36948,-0.0819 1.63047,-0.1821 l 0.47454,-0.18209 0,-0.52141 0,-0.52141 -0.57259,-0.51818 c -0.31492,-0.285 -0.73632,-0.91348 -0.93644,-1.39661 l -0.36386,-0.87843 0.48645,-1.93654 c 0.26754,-1.0651 0.48694,-2.31379 0.48756,-2.77488 l 0.001,-0.83835 0.62088,-1.01843 c 0.34149,-0.56014 0.80987,-1.20742 1.04085,-1.4384 0.53358,-0.53366 3.58834,-1.59317 4.59333,-1.59317 l 0.76346,0 1.53716,0.93162 1.53716,0.93161 0.40044,0.64121 0.40044,0.64121 0.0881,3.00217 0.0881,3.00218 -0.43614,2.5143 c -0.23988,1.38286 -0.43614,2.75614 -0.43614,3.05173 l 0,0.53744 0.975,0.28774 c 0.53625,0.15825 1.515,0.3094 2.175,0.33589 0.66,0.0265 1.87473,0.24763 2.69939,0.49145 l 1.4994,0.4433 1.64277,-0.19189 1.64277,-0.19188 1.03118,-0.78904 c 0.56715,-0.43397 1.65067,-1.05942 2.40783,-1.38989 0.75716,-0.33046 1.63585,-0.75367 1.95265,-0.94046 l 0.57599,-0.33961 0.26233,-1.90954 c 0.30532,-2.22242 0.30501,-2.20128 0.0519,-3.51708 l -0.19383,-1.00754 0.71382,0.22298 c 0.94017,0.29367 1.15372,0.66524 1.15924,2.0171 l 0.005,1.125 0.35,0 0.35,0 -0.18715,0.18715 -0.18714,0.18714 0.54457,1.08786 c 0.29952,0.59832 0.6351,1.46427 0.74575,1.92434 l 0.20117,0.83649 -0.35609,1.18851 -0.35608,1.18851 -0.3544,0 c -0.53402,0 -4.17234,3.26572 -5.07654,4.55664 l -0.43156,0.61615 -1.29627,0.25798 c -0.71294,0.14188 -2.57245,0.38791 -4.13224,0.54673 l -2.83598,0.28875 -0.54606,0.69187 c -1.60409,2.03246 -5.03198,9.51468 -5.03198,10.98355 l 0,0.62292 -0.3,0.18541 c -0.165,0.10198 -0.3,0.42627 -0.3,0.72066 l 0,0.53524 -1.46366,2.07205 c -0.80502,1.13963 -1.81752,2.39933 -2.25,2.79934 l -0.78634,0.7273 0,0.70177 c 0,0.38598 -0.11677,0.9362 -0.25948,1.22271 -1.17397,2.3568 -1.97,4.17008 -1.9408,4.42093 0.0192,0.165 0.10718,0.66571 0.1955,1.11268 l 0.16058,0.81268 -1.1594,1.79382 c -0.63767,0.9866 -1.43213,2.06654 -1.76545,2.39987 -0.64715,0.64715 -1.60554,2.3999 -1.98537,3.63095 -0.12727,0.4125 -0.50275,0.98625 -0.8344,1.275 l -0.60299,0.525 -0.7487,0 -0.74871,0 -1.94985,0.975 -1.94985,0.975 -1.82596,1.725 c -1.00428,0.94875 -1.91406,1.725 -2.02175,1.725 -0.10768,0 -0.93746,0.91125 -1.84394,2.025 -0.90648,1.11375 -2.86154,3.25753 -4.34457,4.76394 -1.48303,1.50642 -3.15282,3.39642 -3.71064,4.2 l -1.01422,1.46106 0,3.15 0,3.15 1.29305,2.011 1.29305,2.01099 -0.3075,0.57456 c -0.16912,0.31601 -0.24474,0.65981 -0.16805,0.76401 l 0.13945,0.18944 -0.18941,-0.13941 c -0.10417,-0.0767 -0.47171,0.0583 -0.81675,0.3 -0.34504,0.24168 -0.81314,0.43941 -1.04023,0.43941 l -0.41288,0 -0.94537,-0.91166 c -0.51995,-0.50141 -1.23073,-1.17768 -1.57952,-1.50283 l -0.63417,-0.59118 -0.49852,-1.87217 c -0.27419,-1.02969 -0.62031,-2.33066 -0.76915,-2.89105 l -0.27061,-1.01888 -0.39419,-0.24363 -0.39418,-0.24362 -0.17535,0.21251 c -0.26831,0.32518 -0.83035,2.46525 -1.01401,3.86103 -0.20614,1.5666 -1.20868,3.94069 -2.03816,4.82648 l -0.63209,0.675 -0.50121,0 -0.50121,0 -0.46406,-0.525 z m 8.06719,-15.54471 c 0.73697,-1.28322 0.83496,-1.63029 0.4603,-1.63029 -0.33927,0 -1.426,1.51649 -1.69572,2.36629 l -0.22366,0.7047 0.39061,-0.13021 c 0.21484,-0.0716 0.69565,-0.66133 1.06847,-1.31049 z"
           style="fill-opacity:1" />
        <path
           inkscape:connector-curvature="0"
           id="path3753"
           d="m 120.66972,232.65726 c -0.26563,-0.31024 -0.85225,-1.1942 -1.30359,-1.96435 l -0.82062,-1.40029 0.30628,-1.41065 c 0.5292,-2.43736 2.94252,-7.74049 4.12327,-9.06065 l 0.6708,-0.75 0.66891,-1.8 c 0.3679,-0.99 0.7375,-2.1729 0.82133,-2.62867 0.0838,-0.45577 0.27185,-0.90249 0.41783,-0.99271 0.14597,-0.0902 0.26541,-0.34977 0.26541,-0.5768 0,-0.22702 0.15574,-0.7928 0.3461,-1.25729 0.19035,-0.46449 0.38106,-1.01431 0.42379,-1.22182 0.0427,-0.2075 0.39323,-1.265 0.7789,-2.34998 l 0.70121,-1.97271 1.80585,-1.85001 c 0.99322,-1.0175 2.17447,-2.33525 2.625,-2.92833 l 0.81915,-1.07831 0,-1.18669 0,-1.18668 -0.30842,-0.30842 -0.30843,-0.30843 0.54398,-1.17657 c 0.29918,-0.64712 1.03856,-1.93554 1.64306,-2.86316 0.6045,-0.92762 1.19259,-2.07512 1.30687,-2.55 l 0.20779,-0.86342 0.98587,-1.35 c 0.54223,-0.7425 1.23188,-1.58417 1.53257,-1.87038 0.30069,-0.28621 0.83991,-0.89371 1.19826,-1.35 0.35836,-0.45629 1.13718,-1.38883 1.73072,-2.0723 l 1.07916,-1.24269 1.04428,-0.19591 1.04429,-0.19591 0,-0.2864 0,-0.28641 0.43641,0 0.4364,0 0.17575,-1.125 c 0.0967,-0.61875 0.29733,-1.5975 0.44594,-2.175 0.14861,-0.5775 0.30249,-1.9275 0.34195,-3 0.0395,-1.0725 0.24516,-2.76 0.45711,-3.75 0.21195,-0.99 0.38425,-2.475 0.38289,-3.3 l -0.002,-1.5 -0.68809,-1.2 -0.68808,-1.2 -0.72391,-0.20101 c -1.25725,-0.34909 -4.39464,-0.86427 -6.34455,-1.04181 -1.03368,-0.0941 -2.89192,-0.44387 -4.12942,-0.77723 -1.2375,-0.33336 -2.76415,-0.70729 -3.39255,-0.83096 l -1.14255,-0.22484 -2.11327,-1.08708 c -1.16229,-0.59789 -2.21724,-1.08707 -2.34431,-1.08707 -0.12708,0 -0.88946,-0.29773 -1.69418,-0.66162 -0.80473,-0.36389 -1.56439,-0.63389 -1.68814,-0.6 -0.12375,0.0339 -0.225,-0.0734 -0.225,-0.23838 l 0,-0.3 -0.45,0 -0.45,0 0,-0.2625 0,-0.2625 -0.825,-0.17029 -0.825,-0.17029 -1.86211,-1.21721 -1.86211,-1.21721 -1.65271,0 -1.65271,0 -1.13518,-0.51514 c -0.62435,-0.28332 -1.50956,-0.76725 -1.96715,-1.07538 l -0.83196,-0.56026 0.19279,-1.54961 0.19279,-1.54961 0.40097,-0.42608 0.40097,-0.42608 1.60328,0.38462 1.60328,0.38462 0.58492,-0.11941 0.58493,-0.1194 -0.0701,-1.03914 c -0.0386,-0.57152 -0.002,-1.34288 0.0807,-1.71413 l 0.15081,-0.675 0.57041,0 0.5704,0 0.21087,2.025 0.21086,2.025 1.27625,1.23472 1.27624,1.23473 2.06177,0.78676 c 1.13397,0.43272 3.20927,1.06046 4.61177,1.39498 4.09694,0.97719 6.69945,1.93767 7.80936,2.88212 l 0.45937,0.39088 2.22567,0.34533 2.22567,0.34532 0.62995,0.41276 0.62996,0.41276 1.78501,-0.002 c 0.98175,-0.001 3.06751,-0.0227 4.63501,-0.0482 l 2.85,-0.0463 1.26093,0.41124 1.26094,0.41124 0.68906,-0.35257 0.68907,-0.35256 1.65,-0.0807 1.65,-0.0807 0.0916,-0.94275 0.0916,-0.94275 -0.9166,-0.65268 -0.9166,-0.65268 0,-0.8892 0,-0.88921 0.45,-1.077 0.45,-1.077 0.0106,-1.38837 0.0106,-1.38836 0.36437,-0.62498 c 0.2004,-0.34374 0.6538,-0.98499 1.00755,-1.425 l 0.64319,-0.80002 0.61412,0 0.61412,0 0.18541,-0.3 0.18541,-0.3 1.88793,0 1.88793,0 1.01937,0.68098 1.01936,0.68098 0.52461,1.04402 0.52461,1.04402 -0.17318,3.15 c -0.25485,4.63539 -0.42018,6.0749 -0.78157,6.80476 l -0.3242,0.65476 0.18045,0.47024 0.18045,0.47024 0.59171,0 0.59171,0 0.20615,0.33355 0.20614,0.33355 1.38656,-0.17657 1.38656,-0.17656 1.76816,0.72706 1.76815,0.72707 1.51978,-0.28822 1.51978,-0.28822 0.76207,-0.72691 c 0.83729,-0.79867 3.77452,-2.25718 4.55496,-2.26182 l 0.49291,-0.003 0.20684,-0.525 c 0.33075,-0.83948 0.60332,-3.0944 0.58021,-4.8 l -0.0213,-1.575 0.18924,0 c 0.10408,0 0.35124,0.162 0.54924,0.36 l 0.36,0.36 0.007,0.915 0.007,0.915 0.6241,1.35 0.6241,1.35 0.15788,1.8438 0.15788,1.84381 -0.69295,0.37085 c -0.38112,0.20397 -1.62947,1.30182 -2.7741,2.43966 -2.43727,2.42281 -2.77784,2.63026 -5.16009,3.14322 l -1.8,0.38758 -1.8,0.0151 -1.8,0.0151 -0.31491,0.2204 c -0.52334,0.36629 -2.83785,4.06738 -3.0439,4.86744 -0.10582,0.41086 -0.37212,0.92676 -0.59179,1.14643 -0.2197,0.21967 -0.39943,0.59409 -0.39943,0.83204 0,0.23795 -0.12846,0.66706 -0.28547,0.95357 -0.48127,0.87825 -1.10553,2.53601 -1.64474,4.36775 l -0.51421,1.74682 -1.00837,1.70318 -1.00837,1.70318 -1.06942,0.83779 -1.06942,0.83779 -0.002,0.66221 c -9e-4,0.36421 -0.20352,1.04889 -0.45,1.5215 -0.24653,0.47261 -0.4482,1.13487 -0.4482,1.47169 l 0,0.61239 -0.73909,0.96899 -0.73909,0.969 0.0196,1.64194 0.0196,1.64193 -0.75634,1.16738 c -0.41598,0.64207 -1.25278,1.70739 -1.85956,2.36739 -0.98087,1.06691 -1.58391,2.09227 -1.76436,3 -0.27001,1.3582 -1.20347,2.23904 -2.37954,2.24541 l -0.84876,0.005 -2.07598,1.10427 -2.07597,1.10428 -2.85027,2.84102 c -1.56766,1.56256 -2.85028,2.93668 -2.85028,3.05359 0,0.11692 -0.46282,0.6651 -1.02848,1.21818 l -1.02848,1.0056 0.14619,0.23653 0.14618,0.23653 -0.4677,0 -0.46771,0 0,0.2779 c 0,0.15285 -1.01954,1.2666 -2.26565,2.475 l -2.26566,2.1971 -0.90639,1.41062 -0.90639,1.41062 -0.17017,2.25005 -0.17018,2.25004 0.81429,1.66434 0.81428,1.66433 0.27023,0 c 0.14863,0 0.48683,0.41886 0.75157,0.93081 l 0.48134,0.9308 -0.3307,0.7942 -0.3307,0.79419 -0.74975,0.34999 -0.74976,0.34999 -1.75495,-1.69999 -1.75494,-1.69999 -0.2022,-1.05 c -0.11121,-0.5775 -0.42034,-1.90074 -0.68696,-2.94052 l -0.48477,-1.89053 -0.55747,-0.29835 -0.55747,-0.29835 -0.26952,0.16657 c -0.2874,0.17763 -0.879,2.53066 -1.1342,4.51118 -0.1887,1.46441 -1.16099,4.01089 -1.80408,4.725 l -0.47279,0.525 -0.48683,0 -0.48684,0 -0.48296,-0.56406 z m 7.49736,-13.56374 c 0.21166,-0.33892 0.65672,-1.11256 0.98903,-1.71921 0.33231,-0.60664 0.85741,-1.50799 1.16689,-2.00299 0.30949,-0.495 0.77335,-1.29317 1.03082,-1.7737 l 0.46812,-0.8737 -0.16569,-0.16569 -0.16569,-0.16569 -0.51061,0.31682 c -0.28084,0.17425 -1.01336,1.04698 -1.62782,1.93939 -0.61447,0.89241 -1.23735,1.76596 -1.38418,1.94121 -0.14684,0.17525 -0.5027,0.81541 -0.79082,1.42257 l -0.52385,1.10393 0.17167,0.44737 0.17168,0.44737 0.39281,-0.15073 c 0.21604,-0.0829 0.56598,-0.42803 0.77764,-0.76695 z"
           style="fill-opacity:1" />
      </g>
      <path
         inkscape:export-ydpi="340"
         inkscape:export-xdpi="340"
         transform="matrix(1.3514053,0.3829877,-0.05714384,0.27611569,-35.885965,53.754618)"
         d="m 198.57143,237.3622 c 1.81751,0.49243 0.23291,2.69292 -0.81845,3.02083 -2.84914,0.88861 -5.11234,-2.11542 -5.22322,-4.65773 -0.19834,-4.54761 4.27545,-7.66005 8.49702,-7.4256 6.19533,0.34406 10.25815,6.4557 9.62798,12.3363 -0.83991,7.83792 -8.64194,12.87621 -16.17559,11.83037 -9.48032,-1.31609 -15.50428,-10.83076 -14.03275,-20.01488 1.78223,-11.1232 13.02095,-18.13811 23.85416,-16.23513 12.76657,2.24259 20.77553,15.212 18.43752,27.69345 -2.69934,14.41032 -17.40362,23.41535 -31.53273,20.63989 -16.0544,-3.15365 -26.05686,-19.59564 -22.84228,-35.37201 3.60627,-17.69871 21.78796,-28.69959 39.2113,-25.04466 19.34321,4.05765 31.34323,23.9805 27.24704,43.05058"
         sodipodi:t0="0"
         sodipodi:argument="-18.584972"
         sodipodi:radius="37.556931"
         sodipodi:revolution="3"
         sodipodi:expansion="1"
         sodipodi:cy="237.3622"
         sodipodi:cx="198.57143"
         id="path3766"
         style="fill:none;fill-rule:evenodd;stroke:#bb0000;stroke-width:2.43272304;stroke-linecap:round;stroke-linejoin:round;stroke-opacity:1;opacity:1;stroke-miterlimit:4;stroke-dasharray:none;stroke-dashoffset:0"
         sodipodi:type="spiral" />
    </g>
  </g>
</svg>
