<?xml version="1.0" encoding="UTF-8" standalone="no"?>
<!-- Created with Inkscape (http://www.inkscape.org/) -->

<svg
   xmlns:dc="http://purl.org/dc/elements/1.1/"
   xmlns:cc="http://creativecommons.org/ns#"
   xmlns:rdf="http://www.w3.org/1999/02/22-rdf-syntax-ns#"
   xmlns:svg="http://www.w3.org/2000/svg"
   xmlns="http://www.w3.org/2000/svg"
   xmlns:sodipodi="http://sodipodi.sourceforge.net/DTD/sodipodi-0.dtd"
   xmlns:inkscape="http://www.inkscape.org/namespaces/inkscape"
   width="210mm"
   height="297mm"
   viewBox="0 0 744.09448819 1052.3622047"
   id="svg2"
   version="1.1"
   inkscape:version="0.91 r13725"
   sodipodi:docname="spoon.svg">
  <defs
     id="defs4" />
  <sodipodi:namedview
     id="base"
     pagecolor="#ffffff"
     bordercolor="#666666"
     borderopacity="1.0"
     inkscape:pageopacity="0.0"
     inkscape:pageshadow="2"
     inkscape:zoom="1.4"
     inkscape:cx="399.07042"
     inkscape:cy="334.36549"
     inkscape:document-units="px"
     inkscape:current-layer="layer1"
     showgrid="false"
     inkscape:window-width="1920"
     inkscape:window-height="1018"
     inkscape:window-x="-8"
     inkscape:window-y="-8"
     inkscape:window-maximized="1" />
  <metadata
     id="metadata7">
    <rdf:RDF>
      <cc:Work
         rdf:about="">
        <dc:format>image/svg+xml</dc:format>
        <dc:type
           rdf:resource="http://purl.org/dc/dcmitype/StillImage" />
        <dc:title></dc:title>
      </cc:Work>
    </rdf:RDF>
  </metadata>
  <g
     inkscape:label="Layer 1"
     inkscape:groupmode="layer"
     id="layer1">
    <g
       id="g3347"
       transform="translate(50.002556,180.81731)"
       inkscape:export-xdpi="142"
       inkscape:export-ydpi="142">
      <path
         style="fill-opacity:1"
         d="m 345.99939,668.09346 c -21.03543,-2.65275 -45.02913,-13.3766 -58.69688,-26.23422 -2.45114,-2.30585 -4.84406,-4.33312 -5.31761,-4.50504 -1.1029,-0.40041 -10.63979,-12.15133 -15.24861,-18.78865 -3.64585,-5.25052 -7.21658,-12.41446 -11.41348,-22.89877 -10.2884,-25.70158 -8.52066,-61.17227 4.33129,-86.90966 6.42557,-12.86789 11.91156,-20.26302 23.33175,-31.45131 19.73929,-19.33846 43.66312,-29.63735 71.74425,-30.88495 33.17709,-1.474 60.94792,9.32763 84.18926,32.74592 20.51558,20.67178 31.0712,44.67616 32.77296,74.52852 1.15611,20.28041 -6.34273,47.16108 -17.98546,64.47148 -13.87147,20.62411 -33.0415,35.97857 -54.74899,43.85185 -17.18269,6.23214 -35.26411,8.30625 -52.95848,6.07483 z m 23.83645,-3.94479 c 5.13504,-0.5409 13.01004,-1.91803 17.5,-3.0603 13.98673,-3.5583 32.88408,-13.35761 41.82878,-21.69054 l 4.66522,-4.34614 -4.36406,-4.02265 c -3.92313,-3.61622 -9.42265,-12.51983 -25.23951,-40.86226 -1.3812,-2.475 -3.94526,-6.3 -5.69789,-8.5 -1.75264,-2.2 -4.41385,-6.53107 -5.91381,-9.62461 -2.52047,-5.19827 -2.70399,-6.41103 -2.42118,-16 0.1683,-5.70646 -0.0513,-11.95039 -0.48792,-13.87539 l -0.79392,-3.5 2.40014,3.78184 c 1.80877,2.85003 2.7144,6.42268 3.67561,14.5 1.52123,12.78336 3.8919,17.50095 13.42633,26.71816 3.41358,3.3 7.5809,8.475 9.26073,11.5 1.67982,3.025 4.52352,8.2 6.31934,11.5 4.13676,7.60171 7.55565,12.86292 11.87656,18.2764 3.31379,4.1517 3.47088,4.2246 5.38762,2.5 2.05572,-1.84965 7.74151,-9.71315 7.74151,-10.70658 0,-0.3134 -0.4549,-0.56982 -1.0109,-0.56982 -0.55599,0 -3.05501,-0.96085 -5.55337,-2.13522 -3.8833,-1.82536 -4.49846,-2.51465 -4.2391,-4.75 0.16685,-1.43813 0.8528,-2.50664 1.52433,-2.37446 0.67152,0.13217 4.27152,0.52268 8,0.86779 l 6.77904,0.62747 2.25,-4.64454 c 2.88956,-5.96474 2.85405,-7.50715 -0.10873,-4.72375 -3.92376,3.68618 -8.94356,4.53831 -15.17965,2.57682 -5.00929,-1.57561 -5.66699,-1.5791 -9.48792,-0.0503 -4.02032,1.60861 -5.9737,1.45243 -5.9737,-0.47762 0,-0.53115 1.10703,-1.38662 2.46007,-1.90105 1.35303,-0.51442 3.37803,-1.85328 4.5,-2.97525 2.56882,-2.56882 5.10453,-2.58077 9.26576,-0.0437 1.80079,1.09795 3.94668,1.99795 4.76863,2 0.82196,0.002 4.32736,-1.90876 7.7898,-4.24626 l 6.29533,-4.25 -4.7898,-2.11918 c -5.68213,-2.51392 -7.28979,-2.1481 -7.28979,1.65885 0,4.91016 -6.93899,4.8787 -8.49966,-0.0385 -0.35244,-1.11046 -1.51303,-2.0011 -2.60757,-2.0011 -3.37433,0 -9.30082,-3.63415 -13.68772,-8.39337 -3.78108,-4.10199 -5.54777,-8.60663 -3.37546,-8.60663 0.45627,0 3.62606,2.53067 7.04398,5.62371 5.6467,5.10997 6.53367,5.57189 9.70941,5.05654 3.4308,-0.55675 11.18143,-5.55247 14.77505,-9.52338 2.73179,-3.01859 1.34961,-5.94923 -3.16439,-6.70945 -2.0315,-0.34213 -4.52222,-0.85113 -5.53493,-1.1311 -1.87721,-0.51897 -5.11532,-6.76849 -4.24046,-8.18404 0.74764,-1.20972 -5.20737,-27.17325 -6.62397,-28.88015 -0.69202,-0.83384 -2.72883,-2.98668 -4.52625,-4.7841 -3.68645,-3.68645 -4.19425,-7.31552 -1.81906,-13.00015 2.102,-5.03078 4.26636,-4.54711 4.14692,0.92671 -0.0996,4.5649 2.29911,8.60541 5.10876,8.60541 3.09645,0 18.29535,-9.88934 18.29535,-11.90409 0,-1.38809 -9.52189,-15.27592 -13.74993,-20.05448 l -3.94491,-4.45858 -3.12566,3.55993 c -3.27902,3.7346 -12.7941,8.59586 -18.70116,9.55445 -4.55839,0.73972 -15.15217,-1.36683 -19.12487,-3.80295 -3.21741,-1.97297 -6.92376,-6.65732 -5.99905,-7.58203 0.28282,-0.28282 2.00628,0.61203 3.8299,1.98856 4.348,3.28202 9.76974,4.68677 18.11534,4.69361 6.86176,0.006 9.8647,-0.99229 16.20034,-5.38363 6.80592,-4.7173 6.7632,-4.63753 3.90308,-7.28819 -13.63955,-12.64071 -32.04707,-21.30003 -54.96259,-25.85565 -2.78965,-0.55459 -4.44049,4.1687 -4.44049,12.70483 0,7.39005 0.54284,9.30919 6.64224,23.48285 5.28426,12.27947 5.89485,16.14283 4.44104,28.09966 -1.0936,8.99435 -1.05687,9.36431 1.41382,14.23999 2.14405,4.23107 2.28638,5.00572 0.91975,5.00572 -2.59819,0 -7.92738,-6.09546 -9.92284,-11.34962 -1.62039,-4.2666 -1.69823,-5.58902 -0.64743,-11 1.5471,-7.96658 1.54774,-8.58804 0.0125,-12.15038 -1.21886,-2.82824 -1.32341,-2.50163 -1.82599,5.70442 -0.2932,4.78743 -1.03193,9.20126 -1.64161,9.80851 -0.809,0.80578 -2.69097,0.5479 -6.96534,-0.95442 -3.22125,-1.13218 -6.67106,-2.05851 -7.66623,-2.05851 -2.73452,0 -3.93224,4.48012 -3.19579,11.95394 1.13082,11.47605 -2.49887,16.36208 -10.82692,14.57442 -1.78046,-0.38218 -5.77301,-0.91978 -8.87234,-1.19465 -5.06363,-0.44908 -5.8014,-0.26316 -7.27453,1.83326 -0.90167,1.28317 -1.91087,4.02053 -2.24267,6.08303 -0.64533,4.01142 -0.67786,4.03618 -4.09766,3.11971 -2.57611,-0.69037 -2.92613,-3.57587 -1.12796,-9.29871 1.64526,-5.2362 2.27578,-6.28378 4.95529,-8.2331 2.24442,-1.63279 2.97428,-1.65509 9.9198,-0.30313 8.34421,1.62422 12.65121,1.59388 14.05619,-0.099 0.51581,-0.62151 1.08372,-5.20402 1.26202,-10.18334 0.22943,-6.40707 0.82205,-9.81314 2.02747,-11.65286 0.93681,-1.42977 1.92362,-2.59957 2.1929,-2.59957 0.26928,0 3.60846,0.86428 7.42039,1.92062 8.65601,2.3987 9.16475,1.93432 8.80793,-8.03999 -0.19834,-5.54447 0.0521,-7.31671 1.00676,-7.1237 1.55314,0.31402 0.98831,-2.4235 -2.52897,-12.25693 -1.37709,-3.85 -3.22673,-9.60296 -4.11032,-12.78436 -1.54013,-5.54534 -1.51903,-6.0341 0.51057,-11.8276 2.59537,-7.4085 2.604,-7.40291 -10.14793,-6.56527 -59.58419,3.91394 -103.89778,52.8383 -101.15245,111.67723 0.66458,14.2436 2.34521,21.92675 7.78223,35.57708 14.32213,35.95752 47.9085,61.61521 86.87608,66.36738 9.29158,1.13313 11.40008,1.13674 21.83645,0.0374 z m -31.59507,-5.30712 c -4.35287,-2.41744 -8.43444,-11.5323 -6.31021,-14.09184 0.76485,-0.92159 0.80553,-2.14525 0.13036,-3.9211 -0.74842,-1.9685 -0.48609,-3.95628 1.10484,-8.37164 1.72217,-4.7796 2.10789,-8.32095 2.20997,-20.29019 0.11698,-13.7169 -0.008,-14.71603 -2.31267,-18.5 -4.60288,-7.55705 -8.32144,-11.60666 -14.31099,-15.58503 l -6.0006,-3.9857 -4.38245,1.67367 c -6.13006,2.34109 -14.66937,1.44728 -21.45446,-2.24563 -8.78576,-4.78181 -18.11324,-14.2596 -21.7058,-22.05561 -4.42299,-9.59805 -5.1198,-16.78955 -2.20936,-22.80171 2.15755,-4.45691 4.37874,-6.45457 5.70365,-5.12966 0.33958,0.33957 -0.12983,1.4431 -1.04312,2.45228 -1.98614,2.19465 -2.05825,6.49623 -0.25017,14.92354 1.06342,4.95652 2.30883,7.38005 6.03197,11.73804 5.19635,6.08239 11.47667,11.47078 16.05766,13.77715 4.74686,2.38988 14.38899,4.01105 19.68099,3.30904 4.1426,-0.54954 5.50878,-0.25045 9.47598,2.07448 6.79474,3.98198 17.6993,15.34005 20.78743,21.65196 2.30454,4.71033 2.74279,7.12917 3.22984,17.82649 0.61694,13.55046 -0.44723,21.71057 -3.71036,28.4513 -1.94238,4.01242 -1.96016,4.39423 -0.38759,8.32446 2.33728,5.84142 5.54207,6.48364 9.90259,1.9844 l 3.27915,-3.38347 -0.9006,-19.91146 c -0.76217,-16.85095 -1.26498,-20.95924 -3.27123,-26.72823 -3.79232,-10.90481 -6.93255,-15.28355 -16.58941,-23.13229 -8.78395,-7.13927 -11.0684,-10.05641 -9.27766,-11.84715 0.55706,-0.55706 5.21434,2.54079 11.84933,7.88176 8.83408,7.11117 11.55328,9.94483 14.17193,14.76847 6.50922,11.99018 7.40429,16.77629 8.81992,47.16159 l 0.61463,13.19269 -3.03086,4.40521 c -5.01134,7.28373 -10.39286,9.44416 -15.9027,6.38418 z m 87.31143,-91.92477 c -0.21143,-0.6875 -0.63566,-4.175 -0.94274,-7.75 -0.30708,-3.575 -1.04063,-8.1857 -1.6301,-10.246 l -1.07177,-3.746 -2.85002,2.1071 c -6.16219,4.55591 -17.76751,3.28147 -20.63631,-2.26618 -1.85886,-3.59464 -1.47613,-5.76033 0.64341,-3.64078 2.66729,2.66729 5.73563,3.79186 10.34593,3.79186 3.75698,0 4.82954,-0.4378 6.2012,-2.53121 0.91218,-1.39216 1.48007,-2.70964 1.26199,-2.92772 -1.45879,-1.45879 -12.46199,-6.54107 -14.16149,-6.54107 -1.14621,0 -3.12551,0.97844 -4.39846,2.17431 l -2.31445,2.17432 -2.29122,-2.15249 c -3.25572,-3.05859 -5.23539,-8.85668 -3.66858,-10.74458 1.96558,-2.36838 10.66104,-1.8262 16.4598,1.02631 6.25077,3.07486 6.5,3.07571 6.5,0.0221 0,-5.88883 3.18869,-2.14919 9.90075,11.61144 5.58938,11.45898 7.28193,18.56231 6.00044,25.18276 -0.44775,2.31319 -0.83369,4.5433 -0.85764,4.9558 -0.0723,1.24446 -2.07809,0.8418 -2.49074,-0.5 z m -119.06762,-2.84873 c -12.06607,-6.35437 -29.49356,-22.99833 -33.95445,-32.42788 -3.016,-6.3753 -3.10659,-7.64228 -0.702,-9.8184 3.02309,-2.73587 6.61165,-1.92992 14.10996,3.16893 14.87931,10.11792 29.7499,26.08888 32.48458,34.88831 1.8503,5.95372 -4.41357,8.15169 -11.93809,4.18904 z m -1.17082,-34.53295 -2.18563,-1.52678 2.07357,-5.67077 c 2.32345,-6.35413 5.77464,-10.17077 9.1969,-10.17077 1.25823,0 4.90358,0.9 8.10079,2 6.85405,2.35814 11.78827,2.5625 13.45255,0.55718 0.65858,-0.79355 1.74926,-5.47719 2.42371,-10.40809 0.67446,-4.93089 1.82081,-9.68162 2.54746,-10.55718 1.79531,-2.16322 5.3563,-1.99987 10.19289,0.46758 2.22031,1.13272 5.01489,1.92022 6.21016,1.75 1.93713,-0.27587 2.22755,-1.06996 2.67323,-7.30949 l 0.5,-7 2.91696,0.21112 c 2.84297,0.20577 4.53675,1.65202 4.56773,3.90021 0.009,0.66428 -1.04921,0.90783 -2.63104,0.60544 -2.62434,-0.50167 -2.64178,-0.46539 -2.09761,4.36241 0.61766,5.47988 -1.56053,12.42082 -3.89786,12.42082 -0.78357,0 -3.69689,-1.15143 -6.47406,-2.55872 -8.74311,-4.43047 -10.02579,-3.28096 -11.19609,10.03376 -1.0375,11.80384 -5.68666,15.49259 -14.66063,11.63209 -3.30712,-1.42268 -6.65076,-2.10706 -9.3394,-1.9116 -3.98276,0.28955 -4.30763,0.56176 -6.62907,5.55447 -1.34258,2.8875 -2.69258,5.2264 -3,5.19755 -0.30741,-0.0289 -1.54246,-0.7395 -2.74456,-1.57923 z m 103.88563,-16.56832 c -0.66,-0.66 -1.2,-1.704 -1.2,-2.32 0,-0.616 -1.61007,-3.001 -3.57792,-5.3 -2.93065,-3.42381 -4.2089,-4.18 -7.06574,-4.18 -3.99749,0 -7.69047,-1.65036 -6.82533,-3.05017 1.58566,-2.56566 13.07495,0.11627 16.43676,3.8368 3.052,3.37767 5.03223,7.18612 5.03223,9.67819 0,2.76231 -0.9296,3.20558 -2.8,1.33518 z M 291.5492,507.82686 c -1.47095,-1.07558 -1.6937,-2.07956 -1.12911,-5.08907 1.08874,-5.80348 2.58666,-8.33142 5.70118,-9.6215 3.28061,-1.35887 3.73064,-1.28602 17.87067,2.89296 12.56546,3.71363 12.97962,3.52001 13.94281,-6.51848 0.73067,-7.61526 2.5489,-11.32256 5.55519,-11.32686 1.1052,-0.002 4.83773,1.19763 8.29452,2.66492 7.43639,3.15649 8.23214,2.75011 9.71493,-4.96138 0.99037,-5.15057 1.03321,-5.19797 4.44722,-4.92012 4.1047,0.33406 3.71525,0.0215 4.63737,3.7215 0.67471,2.70727 0.58687,2.8659 -0.90598,1.63607 -2.72017,-2.24091 -4.71706,-0.6718 -4.56174,3.58452 0.20278,5.55652 0.0167,6.7124 -1.3901,8.63635 -1.19254,1.63089 -1.74709,1.54816 -8.75,-1.30544 -9.72043,-3.96095 -11.5474,-3.95039 -12.35177,0.0715 -0.34375,1.71875 -0.62668,4.98125 -0.62874,7.25 -0.005,5.14198 -3.06052,10.35204 -6.59161,11.23829 -1.78927,0.44907 -5.14792,-0.25048 -10.28102,-2.14137 -4.193,-1.54459 -9.72826,-2.99886 -12.30059,-3.23172 -4.37923,-0.39643 -4.77709,-0.22974 -6.25,2.61855 -0.86517,1.67306 -1.57304,3.73928 -1.57304,4.59159 0,1.90313 -1.04727,1.9668 -3.45019,0.20974 z m 175.0021,38.096 c -0.38853,-3.43416 -0.89733,-6.43483 -1.13067,-6.66817 -0.23334,-0.23334 -1.52645,0.16562 -2.87357,0.88658 -1.58417,0.84782 -4.04427,1.09223 -6.96471,0.69193 l -4.51539,-0.6189 1.03582,2.72441 c 1.99936,5.25872 7.33935,9.09949 12.77578,9.18893 2.32956,0.0383 2.36444,-0.091 1.67274,-6.20478 z m -6.20448,-10.83556 c 3.76754,-1.04615 3.83312,-1.14466 3.15866,-4.74442 -1.15865,-6.18406 -1.57282,-6.42327 -6.54025,-3.7774 -4.98685,2.65621 -7.48142,7.03086 -4.92959,8.64487 1.90447,1.20456 3.62154,1.17914 8.31118,-0.12305 z"
         id="path3351"
         inkscape:connector-curvature="0" />
      <path
         style="fill-opacity:1"
         d="m 345.49939,667.69052 c -23.76665,-3.26414 -47.2272,-14.72056 -62.5,-30.52044 -13.2829,-13.74131 -19.60682,-22.889 -25.25024,-36.52508 -10.99087,-26.55701 -11.78789,-51.62381 -2.55887,-80.47822 1.63467,-5.11078 8.50077,-18.65396 12.67445,-25 8.38834,-12.75438 30.40116,-31.97042 43.13466,-37.65431 2.475,-1.10477 6.24809,-2.78112 8.38464,-3.72521 6.98038,-3.08447 23.9004,-6.67708 34.42412,-7.30923 19.3541,-1.16259 43.07464,3.9163 57.49482,12.31043 3.19196,1.85808 6.19196,3.37832 6.66666,3.37832 0.4747,0 1.01309,0.3637 1.19643,0.80823 0.18333,0.44453 2.8569,2.47085 5.94126,4.50294 12.60976,8.30776 28.0641,26.78211 35.3427,42.24917 10.37646,22.05006 13.58775,48.51395 8.58652,70.7608 -1.47299,6.55227 -6.02054,19.58771 -9.16264,26.26448 -5.50519,11.69819 -17.84407,26.87516 -30.87451,37.97601 -10.10623,8.60967 -30.55009,18.60284 -42.5,20.77445 -1.1,0.1999 -2.675,0.62985 -3.5,0.95545 -1.96951,0.7773 -21.16975,2.74246 -25.28922,2.58838 -1.76593,-0.0661 -7.26078,-0.67633 -12.21078,-1.35617 z m 31.20077,-3.96972 c 20.1934,-3.55382 39.53253,-12.52246 53.71265,-24.90957 l 3.91341,-3.41859 -3.78198,-3.32063 c -4.15503,-3.64816 -6.07877,-6.46765 -12.5579,-18.40523 -2.3881,-4.4 -5.72462,-10.25 -7.41448,-13 -1.68986,-2.75 -3.88331,-6.59925 -4.87433,-8.55389 -0.99102,-1.95464 -3.46602,-5.77964 -5.5,-8.5 -2.03398,-2.72036 -5.029,-7.42111 -6.65561,-10.44611 -2.83789,-5.2776 -2.9592,-6.03031 -3,-18.61481 -0.0381,-11.74817 0.10892,-12.89868 1.4108,-11.04067 0.81466,1.16267 1.98064,6.96016 2.65326,13.19257 1.39947,12.96735 3.74025,17.76836 12.75293,26.15664 2.96015,2.75507 6.63572,7.21356 8.16793,9.90775 1.53221,2.69418 4.51534,7.69999 6.62919,11.12401 2.11385,3.42402 3.84336,6.45278 3.84336,6.73058 0,1.0301 7.16658,11.66407 10.15332,15.06577 3.56442,4.05965 3.81427,3.96325 10.01478,-3.86414 3.99241,-5.03993 4.14815,-6.6577 0.64092,-6.6577 -3.16936,0 -8.80902,-3.89724 -8.80902,-6.08739 0,-1.79716 0.55346,-1.88174 8.37799,-1.2803 l 8.37798,0.64399 2.65027,-5.27656 c 1.45765,-2.90211 2.4207,-5.50613 2.14013,-5.78671 -0.28058,-0.28057 -2.22998,0.68171 -4.33201,2.13842 -4.53825,3.14501 -10.36648,3.49739 -15.7089,0.94976 -3.35185,-1.59838 -3.73237,-1.59838 -6.43822,0 -3.23095,1.90857 -6.06724,2.22056 -6.06724,0.66741 0,-0.56727 0.7875,-1.31431 1.75,-1.66011 0.9625,-0.3458 2.55503,-1.45667 3.53896,-2.46861 2.12167,-2.18209 6.23652,-2.32611 9.71104,-0.3399 1.375,0.78602 3.625,1.43368 5,1.43925 2.45115,0.01 13.05092,-6.59201 13.69732,-8.53121 0.40545,-1.21634 -10.09324,-4.89941 -11.4955,-4.03277 -0.55773,0.3447 -0.76122,1.59357 -0.4522,2.77526 0.36349,1.38999 -0.0579,2.60173 -1.19357,3.43215 -2.32549,1.70043 -6.33978,-0.0645 -6.75445,-2.96969 -0.23602,-1.65352 -1.11895,-2.18059 -4.06037,-2.42388 -4.84572,-0.40079 -15.74123,-9.98856 -15.74123,-13.85188 0,-2.32928 0.22006,-2.24109 4.56161,1.82814 9.43714,8.8452 11.16459,9.10789 19.93839,3.032 7.38344,-5.11305 8.5,-6.27128 8.5,-8.81717 0,-2.60781 -1.81813,-3.81344 -7.22126,-4.7885 -4.22493,-0.76244 -6.77874,-3.69435 -6.77874,-7.78236 0,-1.51011 -1.3352,-8.70727 -2.96711,-15.9937 -2.58987,-11.56369 -3.35605,-13.61154 -6.0262,-16.10702 -6.39111,-5.973 -7.28225,-10.30535 -3.38548,-16.45862 2.0991,-3.31461 2.97938,-2.75054 2.5606,1.64078 -0.49112,5.14984 2.03826,9.10922 5.81925,9.10922 1.56785,0 5.53426,-1.8109 9.13499,-4.17067 10.43285,-6.83725 10.10562,-6.34326 7.40141,-11.17304 -1.27992,-2.28596 -5.41195,-8.07676 -9.18229,-12.86844 l -6.85517,-8.71216 -3,3.43158 c -3.44549,3.94115 -11.03958,7.96002 -18.13707,9.59832 -8.43294,1.94655 -20.19653,-1.95718 -24.23748,-8.04317 -1.50184,-2.2619 -1.3687,-2.23741 2.90022,0.53342 4.15125,2.69446 5.26862,2.92462 15.47433,3.18749 l 11,0.28333 6.85599,-5.10606 6.856,-5.10605 -2.356,-2.51373 C 422.10407,467.10344 395.5273,454.168 378.72599,451.64849 l -4.38757,-0.65796 -1.66952,4.37156 c -2.69175,7.04825 -1.67372,16.33371 2.88586,26.32199 8.04622,17.62612 8.72365,20.7436 7.24928,33.36061 -1.16917,10.00534 -1.13339,10.52272 0.99663,14.41136 2.56446,4.68177 2.21642,5.59334 -1.39716,3.65941 -5.8032,-3.10577 -9.352,-16.69516 -6.39258,-24.47904 1.24526,-3.27529 -0.63657,-10.46964 -2.73855,-10.46964 -1.14553,0 -1.29485,1.45562 -0.79503,7.75 0.80734,10.16704 0.17048,11.12981 -6.17407,9.33361 -12.75014,-3.60969 -13.30389,-3.18995 -13.30389,10.08429 0,9.20221 -0.1783,10.10131 -2.45455,12.37755 -2.92241,2.92242 -3.20811,2.94214 -11.57311,0.79874 -3.59021,-0.91994 -7.67611,-1.38437 -9.07978,-1.03207 -2.62165,0.65799 -5.30219,4.83976 -6.3529,9.91085 -0.52078,2.51342 -0.76035,2.6336 -3.11306,1.56163 -1.8591,-0.84706 -2.41549,-1.71924 -2.05601,-3.22297 0.27107,-1.1339 0.79592,-3.7345 1.16632,-5.77911 0.37041,-2.04461 1.78412,-4.91589 3.14158,-6.38061 2.26662,-2.44573 2.8907,-2.60755 7.64481,-1.98233 11.00372,1.44712 16.23378,1.64547 17.6767,0.67038 1.11385,-0.7527 1.63388,-3.75106 2.02004,-11.64707 0.59978,-12.264 1.65404,-14.03589 7.29867,-12.26684 9.96374,3.12266 10.91502,3.22479 12.30692,1.32125 0.73222,-1.00137 1.14057,-2.76042 0.90744,-3.90899 -0.23313,-1.14857 -0.70102,-4.22581 -1.03975,-6.83831 -0.55724,-4.29782 -0.4242,-4.75 1.39758,-4.75 1.90983,0 1.94529,-0.2187 0.68907,-4.25 -0.7284,-2.3375 -2.73187,-8.04863 -4.45217,-12.6914 -3.53348,-9.53626 -3.96783,-15.91869 -1.50262,-22.07985 0.89385,-2.23395 1.34464,-4.34227 1.00175,-4.68516 -1.14559,-1.14558 -18.02907,-0.32957 -26.12693,1.26277 -16.69531,3.28292 -34.50283,11.39844 -47.7678,21.76947 -16.23028,12.68943 -31.31799,36.08928 -36.86464,57.17417 -2.06906,7.86529 -2.36756,11.26942 -2.36756,27 0,20.29075 0.86714,24.92972 7.75735,41.5 10.02646,24.11263 27.09374,42.19756 51.29647,54.35511 20.85899,10.4779 42.76827,13.96133 64.14695,10.19891 z m -38.38695,-5.50425 c -1.7524,-1.06851 -3.72964,-2.95823 -4.39388,-4.19937 -2.14831,-4.01416 -2.02534,-15.6378 0.25233,-23.8504 3.08419,-11.12067 2.97835,-28.99168 -0.2107,-35.57939 -2.81018,-5.80505 -13.02665,-16.40859 -18.46157,-19.16102 -3.52043,-1.78287 -4.25204,-1.85706 -6.10221,-0.61882 -3.4774,2.32727 -15.30806,1.95581 -20.3971,-0.64042 -5.80998,-2.96403 -16.17144,-11.22436 -19.4171,-15.47964 -3.88819,-5.09769 -7.58359,-15.6854 -7.58359,-21.72781 0,-5.13005 3.19636,-13.7929 5.08921,-13.7929 1.37998,0 1.09565,1.78824 -0.72651,4.56921 -1.52018,2.32008 -1.51179,3.08656 0.11727,10.71481 1.3653,6.39315 2.54158,9.18531 5.3018,12.58502 7.96544,9.81088 15.17563,15.41713 22.4418,17.44953 8.89993,2.48938 12.84934,2.89387 15.90345,1.62882 2.58449,-1.07053 3.43899,-0.85053 8.4713,2.18099 7.39591,4.45539 18.03212,15.82272 21.12379,22.57581 2.39267,5.22628 2.45964,5.96731 2.04245,22.59963 -0.38583,15.38203 -0.66906,17.65838 -2.68464,21.57731 -2.65645,5.16497 -2.23746,9.70762 1.18539,12.85169 2.52135,2.316 4.41076,1.90989 9.08892,-1.95359 l 2.85423,-2.35718 -1.02227,-20.96103 c -1.06245,-21.78505 -1.98368,-26.49683 -7.04034,-36.00912 -2.82922,-5.32216 -3.43054,-5.98157 -12.64585,-13.8676 -8.23164,-7.04425 -10.5,-9.37211 -10.5,-10.77543 0,-1.88931 2.90865,-0.45631 9.04015,4.45379 3.59708,2.88053 8.25721,6.58734 10.35585,8.23734 4.34118,3.41315 10.50309,14.7406 13.09619,24.07478 1.14273,4.11338 1.81879,11.92639 2.21089,25.55073 0.54331,18.8781 0.48152,19.77372 -1.62242,23.51718 -2.40102,4.27204 -7.60839,8.35942 -10.64254,8.35357 -1.06597,-0.002 -3.3719,-0.87797 -5.1243,-1.94649 z m 87.2958,-90.8724 c -0.33886,-0.54829 -0.3815,-1.60827 -0.0948,-2.35551 0.70192,-1.82915 -2.14573,-17.85273 -3.39467,-19.10167 -0.65549,-0.65549 -1.47702,-0.50621 -2.42361,0.44038 -0.7876,0.78759 -3.26933,2.03836 -5.51495,2.77949 -5.5607,1.83519 -12.38019,-0.006 -15.32125,-4.13615 -2.64173,-3.70996 -1.62242,-4.86844 1.61093,-1.83086 3.31418,3.11351 11.16108,3.84239 14.07732,1.30761 4.09678,-3.5609 3.67054,-4.75879 -2.8905,-8.12342 -7.40914,-3.79956 -11.7816,-4.08392 -13.95011,-0.90724 l -1.53592,2.25 -2.04211,-2 c -1.12316,-1.1 -2.73167,-3.66057 -3.57447,-5.69016 -1.40067,-3.37305 -1.38799,-3.83451 0.14763,-5.37013 2.3423,-2.34231 10.63293,-1.37425 16.92735,1.97653 6.18534,3.29271 6.67429,3.24797 5.84347,-0.53473 -1.43141,-6.51721 2.09853,-2.15474 8.52603,10.53688 6.45138,12.73875 6.5,12.89703 6.5,21.15819 0,7.7789 -1.3156,12.14884 -2.89038,9.60079 z m -118.10962,-3.05718 c -5.72557,-2.62787 -21.21311,-14.92612 -26.5,-21.04295 -9.63786,-11.15083 -12.628,-19.92272 -7.57588,-22.22462 1.97733,-0.90093 3.27845,-0.69093 7.05949,1.13944 13.5993,6.58332 37.51639,31.42375 37.51639,38.96477 0,5.22191 -3.63127,6.31591 -10.5,3.16336 z m -1.28653,-34.78142 c -1.97277,-1.62861 -2.11106,-2.25224 -1.20995,-5.4564 1.15984,-4.12415 4.71249,-9.70744 7.13485,-11.21301 1.1889,-0.73894 3.65796,-0.37959 9,1.30987 10.56554,3.34144 13.92942,3.25687 15.70885,-0.39494 1.1058,-2.26934 2.69315,-11.33888 3.10887,-17.76286 0.0242,-0.37322 0.76633,-1.40099 1.64928,-2.28394 1.75471,-1.75472 2.89903,-1.57881 11.09515,1.70556 7.09828,2.84443 8.39428,1.7515 8.09737,-6.82862 -0.12042,-3.47969 0.0427,-6.5883 0.36236,-6.90801 0.31971,-0.31972 1.76445,-0.0422 3.21052,0.61665 3.02315,1.37744 3.62083,3.949 0.74292,3.19641 -1.70462,-0.44577 -1.9237,0.247 -2.27441,7.19208 -0.50927,10.08503 -1.98589,11.45236 -8.71578,8.07069 -10.40971,-5.23071 -11.55435,-4.49189 -12.55756,8.10531 -0.71895,9.02784 -1.93926,11.83632 -6.11376,14.07044 -1.44021,0.77078 -3.03158,0.66144 -5.9586,-0.4094 -11.13076,-4.07217 -13.57591,-4.24998 -16.42274,-1.19427 -1.10388,1.18488 -2.59723,3.92483 -3.31854,6.08877 -1.3078,3.92339 -1.31773,3.92928 -3.53883,2.09567 z m 102.30576,-18.58877 c -3.28568,-6.78168 -6.70383,-9.79916 -11.95044,-10.54965 -5.52073,-0.78971 -7.58087,-3.20035 -2.73503,-3.20035 5.42356,0 11.71937,3.49015 15.06343,8.35057 3.01798,4.38648 4.07749,8.64943 2.14973,8.64943 -0.5242,0 -1.66166,-1.4625 -2.52769,-3.25 z m -116.95247,-3.32609 c -2.93089,-2.93089 0.0515,-11.99508 4.67607,-14.21156 2.41735,-1.15861 4.20643,-0.8844 15.86485,2.43161 15.40709,4.38225 15.19634,4.46492 16.30603,-6.3966 0.90904,-8.89763 2.6517,-11.61154 6.86219,-10.68676 1.72951,0.37986 4.82829,1.56827 6.88617,2.64089 5.97578,3.11475 8.1433,2.23584 9.12833,-3.70149 1.02195,-6.15985 1.69466,-6.88183 5.61076,-6.02171 3.58097,0.78651 4.32337,3.62794 0.85175,3.25992 -2.06242,-0.21863 -2.29686,0.27976 -2.85267,6.06446 -0.81839,8.51755 -1.51264,9.02117 -8.60735,6.24384 -7.70403,-3.01585 -12.28243,-3.672 -13.39264,-1.91935 -0.47829,0.75506 -0.87652,3.75769 -0.88494,6.6725 -0.0321,11.12202 -5.83125,16.0987 -14.42944,12.38304 -2.24723,-0.97113 -6.69739,-2.63587 -9.88925,-3.69942 -5.26647,-1.75484 -6.05286,-1.79413 -8.5,-0.42476 -1.48314,0.82993 -3.1623,2.93447 -3.73147,4.67674 -1.39466,4.26921 -1.94102,4.64602 -3.89839,2.68865 z m 175.41959,40.82609 c -0.008,-2.6125 -0.29099,-5.78541 -0.62995,-7.05091 -0.53859,-2.01082 -1.00967,-2.20445 -3.73635,-1.5358 -1.71603,0.42082 -5.05924,0.68019 -7.42936,0.57638 -4.02777,-0.17641 -4.26419,-0.0434 -3.6188,2.03579 0.57814,1.86257 4.15199,7.69041 4.7462,7.7396 0.10005,0.008 1.98191,0.66353 4.18191,1.4561 6.17978,2.22635 6.50155,2.06656 6.48635,-3.22116 z m -4.28952,-13.7502 c 1.90194,-1.33217 2.02846,-1.92022 1.12958,-5.25 -1.4082,-5.21645 -2.12146,-5.66085 -5.96151,-3.71431 -5.1562,2.61371 -6.8649,4.51023 -6.8649,7.6195 0,2.72968 0.19367,2.84501 4.77749,2.84501 2.62849,0 5.74094,-0.67482 6.91934,-1.5002 z"
         id="path3349"
         inkscape:connector-curvature="0" />
    </g>
  </g>
</svg>
